<svg width="150" height="150" viewBox="0 0 150 150" fill="none" xmlns="http://www.w3.org/2000/svg">
    <rect width="150" height="150" fill="#E5E5E5"/>
    <path d="M129.62 108.617L125.558 100.492C125.391 100.155 125.134 99.8722 124.814 99.6747C124.494 99.4772 124.126 99.3733 123.75 99.375H111.562V93.2812C111.562 92.7425 111.348 92.2259 110.968 91.8449C110.587 91.464 110.07 91.25 109.531 91.25H96.9578C96.3689 88.7628 95.1264 86.4779 93.3588 84.6317C91.5911 82.7855 89.3624 81.4449 86.9031 80.7484L68.9062 75.5078V72.2578C71.9879 70.4732 74.5476 67.9114 76.3297 64.8283C78.1119 61.7452 79.0541 58.2486 79.0625 54.6875V48.2281C80.2561 47.8101 81.2891 47.0294 82.0171 45.9953C82.7452 44.9612 83.1317 43.7254 83.1228 42.4608C83.1138 41.1962 82.7098 39.966 81.9672 38.9423C81.2246 37.9186 80.1806 37.1527 78.9812 36.7516C78.6743 32.7238 77.1615 28.8818 74.6398 25.7261C72.1182 22.5704 68.7046 20.2473 64.8438 19.0594V18.125C64.8405 17.0485 64.4115 16.0171 63.6503 15.2559C62.8892 14.4948 61.8577 14.0657 60.7812 14.0625H56.7188C55.6423 14.0657 54.6108 14.4948 53.8497 15.2559C53.0885 16.0171 52.6595 17.0485 52.6562 18.125V19.0594C48.7954 20.2473 45.3818 22.5704 42.8602 25.7261C40.3385 28.8818 38.8257 32.7238 38.5187 36.7516C37.3194 37.1527 36.2754 37.9186 35.5328 38.9423C34.7902 39.966 34.3862 41.1962 34.3772 42.4608C34.3683 43.7254 34.7548 44.9612 35.4829 45.9953C36.2109 47.0294 37.2439 47.8101 38.4375 48.2281V54.6875C38.4459 58.2486 39.3881 61.7452 41.1703 64.8283C42.9524 67.9114 45.5121 70.4732 48.5938 72.2578V75.5078L30.6172 80.7484C27.6157 81.5783 24.9684 83.3678 23.0794 85.8435C21.1905 88.3193 20.1638 91.3453 20.1562 94.4594V133.906C20.1562 134.445 20.3703 134.962 20.7512 135.343C21.1321 135.723 21.6488 135.938 22.1875 135.938H127.812C128.351 135.938 128.868 135.723 129.249 135.343C129.63 134.962 129.844 134.445 129.844 133.906V109.531C129.842 109.213 129.765 108.9 129.62 108.617ZM107.5 95.3125V99.375H91.25V95.3125H107.5ZM72.9688 80.9109V83.4703C71.6514 83.0235 70.2236 83.0235 68.9062 83.4703V79.7328L72.9688 80.9109ZM64.8438 23.3656C67.5091 24.4715 69.837 26.2582 71.5945 28.5469C73.352 30.8356 74.4774 33.5458 74.8578 36.4062H64.8438V23.3656ZM56.7188 18.125H60.7812V36.4062H56.7188V18.125ZM52.6562 23.3656V36.4062H42.6422C43.0226 33.5458 44.148 30.8356 45.9055 28.5469C47.663 26.2582 49.9909 24.4715 52.6562 23.3656V23.3656ZM38.4375 42.5C38.4375 41.9613 38.6515 41.4446 39.0324 41.0637C39.4134 40.6828 39.93 40.4688 40.4688 40.4688H77.0312C77.57 40.4688 78.0866 40.6828 78.4676 41.0637C78.8485 41.4446 79.0625 41.9613 79.0625 42.5C79.0625 43.0387 78.8485 43.5554 78.4676 43.9363C78.0866 44.3172 77.57 44.5312 77.0312 44.5312H40.4688C39.93 44.5312 39.4134 44.3172 39.0324 43.9363C38.6515 43.5554 38.4375 43.0387 38.4375 42.5ZM42.5 54.6875V48.5938H75V54.6875C75 58.9973 73.288 63.1305 70.2405 66.178C67.193 69.2255 63.0598 70.9375 58.75 70.9375C54.4402 70.9375 50.307 69.2255 47.2595 66.178C44.212 63.1305 42.5 58.9973 42.5 54.6875V54.6875ZM64.8438 74.0656V82.1094L58.75 86.6797L52.6562 82.1094V74.0656C56.6232 75.3114 60.8768 75.3114 64.8438 74.0656V74.0656ZM44.5312 80.9109L48.5938 79.7328V83.4703C47.2764 83.0235 45.8486 83.0235 44.5312 83.4703V80.9109ZM61.0047 108.617C60.8597 108.9 60.7832 109.213 60.7812 109.531V131.875H38.4375V101.406H34.375V131.875H24.2188V94.4594C24.2297 92.2281 24.9701 90.0616 26.3271 88.2903C27.684 86.519 29.5829 85.24 31.7344 84.6484L40.4688 82.1094V89.2188C40.4688 89.7575 40.6828 90.2741 41.0637 90.6551C41.4446 91.036 41.9613 91.25 42.5 91.25C43.0387 91.25 43.5554 91.036 43.9363 90.6551C44.3172 90.2741 44.5312 89.7575 44.5312 89.2188C44.5312 88.68 44.7453 88.1634 45.1262 87.7824C45.5071 87.4015 46.0238 87.1875 46.5625 87.1875C47.1012 87.1875 47.6179 87.4015 47.9988 87.7824C48.3797 88.1634 48.5938 88.68 48.5938 89.2188C48.5938 89.7575 48.8078 90.2741 49.1887 90.6551C49.5696 91.036 50.0863 91.25 50.625 91.25C51.1637 91.25 51.6804 91.036 52.0613 90.6551C52.4422 90.2741 52.6562 89.7575 52.6562 89.2188V87.1875L57.5312 90.8437C57.8829 91.1074 58.3105 91.25 58.75 91.25C59.1895 91.25 59.6171 91.1074 59.9688 90.8437L64.8438 87.1875V89.2188C64.8438 89.7575 65.0578 90.2741 65.4387 90.6551C65.8196 91.036 66.3363 91.25 66.875 91.25C67.4137 91.25 67.9304 91.036 68.3113 90.6551C68.6922 90.2741 68.9062 89.7575 68.9062 89.2188C68.9062 88.68 69.1203 88.1634 69.5012 87.7824C69.8821 87.4015 70.3988 87.1875 70.9375 87.1875C71.4762 87.1875 71.9929 87.4015 72.3738 87.7824C72.7547 88.1634 72.9688 88.68 72.9688 89.2188C72.9688 89.7575 73.1828 90.2741 73.5637 90.6551C73.9446 91.036 74.4613 91.25 75 91.25C75.5387 91.25 76.0554 91.036 76.4363 90.6551C76.8172 90.2741 77.0312 89.7575 77.0312 89.2188V82.1094L85.7859 84.6484C87.3978 85.0921 88.8751 85.9267 90.087 87.0783C91.2988 88.2299 92.2076 89.6629 92.7328 91.25H89.2188C88.68 91.25 88.1634 91.464 87.7824 91.8449C87.4015 92.2259 87.1875 92.7425 87.1875 93.2812V99.375H66.875C66.4993 99.3733 66.1307 99.4772 65.8111 99.6747C65.4915 99.8722 65.2337 100.155 65.0672 100.492L61.0047 108.617ZM85.1562 131.875H64.8438V110.019L68.1344 103.438H81.8656L85.1562 110.019V131.875ZM125.781 131.875H89.2188V117.656H101.406C101.406 119.272 102.048 120.822 103.191 121.965C104.334 123.108 105.884 123.75 107.5 123.75C109.116 123.75 110.666 123.108 111.809 121.965C112.952 120.822 113.594 119.272 113.594 117.656H125.781V131.875ZM105.469 117.656V113.594C105.469 113.055 105.683 112.538 106.064 112.157C106.445 111.777 106.961 111.562 107.5 111.562C108.039 111.562 108.555 111.777 108.936 112.157C109.317 112.538 109.531 113.055 109.531 113.594V117.656C109.531 118.195 109.317 118.712 108.936 119.093C108.555 119.473 108.039 119.688 107.5 119.688C106.961 119.688 106.445 119.473 106.064 119.093C105.683 118.712 105.469 118.195 105.469 117.656ZM125.781 113.594H113.594C113.594 111.978 112.952 110.428 111.809 109.285C110.666 108.142 109.116 107.5 107.5 107.5C105.884 107.5 104.334 108.142 103.191 109.285C102.048 110.428 101.406 111.978 101.406 113.594H89.2188V109.531C89.2168 109.213 89.1403 108.9 88.9953 108.617L86.4156 103.438H122.491L125.781 110.019V113.594Z" fill="#252525"/>
</svg>
