<svg width="150" height="150" viewBox="0 0 150 150" fill="none" xmlns="http://www.w3.org/2000/svg">
    <rect width="150" height="150" fill="#E5E5E5"/>
    <path d="M121.719 50.625H117.656C114.297 50.625 111.563 53.3591 111.563 56.7188V57.0661C109.198 57.905 107.5 60.1637 107.5 62.8125V65.1911C107.5 66.8181 108.134 68.3497 109.286 69.5014L111.461 71.6769L109.271 90.2892C103.332 80.7017 93.7444 73.7711 82.6538 71.2259L81.7458 68.5C84.7094 67.6814 87.1408 65.5872 88.3576 62.8125H89.2188C93.6997 62.8125 97.3438 59.1684 97.3438 54.6875V44.5312C99.5843 44.5312 101.406 42.7092 101.406 40.4688V36.4062C101.406 34.1658 99.5843 32.3438 97.3438 32.3438H96.9904C95.0485 20.6437 85.0405 12.0312 72.9688 12.0312C60.8971 12.0312 50.8891 20.6437 48.9472 32.3438H48.5938C46.3533 32.3438 44.5313 34.1658 44.5313 36.4062V40.4688C44.5313 42.7092 46.3533 44.5312 48.5938 44.5312V54.6875C48.5938 59.1684 52.2379 62.8125 56.7188 62.8125H57.5801C58.7988 65.5872 61.2302 67.6834 64.1918 68.5L63.2818 71.228C58.6891 72.2802 54.3118 74.2261 50.4422 76.8952L46.4407 64.47C46.4285 64.403 46.4305 64.3359 46.4163 64.2689C45.3966 59.9891 39.3415 57.7506 32.5977 59.1806C28.4113 60.0683 24.9135 62.1788 23.2397 64.8214C22.283 66.3327 21.9702 67.9414 22.3358 69.477C22.5451 70.3586 22.9777 71.1487 23.5769 71.8414L37.4951 92.6881C35.4537 97.3803 34.3751 102.347 34.3751 107.5C34.3751 116.161 39.3394 123.671 46.5626 127.378V129.844C46.5626 134.325 50.2066 137.969 54.6876 137.969H60.7813H66.8751H99.3751V111.374C102.333 115.292 106.927 117.656 111.971 117.656C120.705 117.656 127.813 110.549 127.813 101.817V56.7188C127.813 53.3591 125.078 50.625 121.719 50.625V50.625ZM111.563 62.8125C111.563 61.6933 112.473 60.7812 113.594 60.7812H115.625V56.7188C115.625 55.5995 116.535 54.6875 117.656 54.6875H121.719C122.84 54.6875 123.75 55.5995 123.75 56.7188V68.9062H114.435L112.158 66.6292C111.774 66.2453 111.563 65.7334 111.563 65.1911V62.8125ZM79.0626 129.844V133.906H73.8707C74.5694 132.706 75.0001 131.331 75.0001 129.844H79.0626ZM81.0938 125.781H68.9063V116.466L71.1833 114.189C71.5632 113.811 72.0852 113.594 72.6194 113.594H75.0001C76.1213 113.594 77.0313 114.506 77.0313 115.625V117.656H81.0938C82.2151 117.656 83.1251 118.568 83.1251 119.688V123.75C83.1251 124.869 82.2151 125.781 81.0938 125.781ZM77.598 68.9062L78.8168 72.5625L72.9688 79.873L67.1188 72.5605L68.3376 68.9042H77.598V68.9062ZM67.1391 79.0889C67.0497 79.0869 66.9644 79.0625 66.8751 79.0625H54.6876C54.6672 79.0625 54.649 79.0686 54.6287 79.0686C57.5577 77.3258 60.7427 76.0238 64.0679 75.2498L67.1391 79.0889ZM54.6876 83.125H59.8408C59.1462 84.3214 58.7501 85.7088 58.7501 87.1875V89.2188H62.8126V87.1875C62.8126 84.947 64.6346 83.125 66.8751 83.125C69.1155 83.125 70.9376 84.947 70.9376 87.1875C70.9376 89.428 69.1155 91.25 66.8751 91.25H54.6876C52.4471 91.25 50.6251 89.428 50.6251 87.1875C50.6251 84.947 52.4471 83.125 54.6876 83.125ZM50.6251 94.1831C51.8255 94.8819 53.2007 95.3125 54.6876 95.3125H66.8751C68.3619 95.3125 69.7371 94.8819 70.9376 94.1831V109.795C69.9585 110.078 69.0505 110.575 68.3111 111.317L66.0341 113.594H58.7501C55.9063 113.594 53.1255 112.915 50.6251 111.674V94.1831ZM79.0626 111.105C77.9819 110.135 76.5641 109.531 75.0001 109.531V87.1875C75.0001 86.2287 74.803 85.3208 74.4963 84.4656L79.0626 78.7598V111.105ZM89.2188 58.75V50.625C91.4593 50.625 93.2813 52.447 93.2813 54.6875C93.2813 56.928 91.4593 58.75 89.2188 58.75ZM93.2813 47.6919C92.0808 46.9931 90.7057 46.5625 89.2188 46.5625V44.5312H93.2813V47.6919ZM92.8669 32.3438H79.0626V17.0241C86.0399 19.1853 91.3922 24.9744 92.8669 32.3438ZM75.0001 16.1953V32.3438H70.9376V16.1953C71.6058 16.1303 72.2822 16.0938 72.9688 16.0938C73.6554 16.0938 74.3318 16.1303 75.0001 16.1953ZM66.8751 17.0241V32.3438H53.0707C54.5454 24.9744 59.8977 19.1853 66.8751 17.0241V17.0241ZM48.5918 36.4062H97.3438V40.4688H48.5938L48.5918 36.4062ZM56.7188 44.5312V46.5625C55.2319 46.5625 53.8568 46.9931 52.6563 47.6919V44.5312H56.7188ZM52.6563 54.6875C52.6563 52.447 54.4783 50.625 56.7188 50.625V58.75C54.4783 58.75 52.6563 56.928 52.6563 54.6875ZM60.7813 58.75V44.5312H85.1563V58.75C85.1563 62.1097 82.4222 64.8438 79.0626 64.8438H66.8751C63.5154 64.8438 60.7813 62.1097 60.7813 58.75V58.75ZM26.6705 66.9969C27.739 65.3109 30.3958 63.8038 33.4427 63.1558C34.6026 62.91 35.6872 62.8023 36.6744 62.8023C39.5487 62.8023 41.5962 63.7123 42.2624 64.7523L42.4615 65.3698C42.5102 65.7863 42.4026 66.2453 42.0796 66.7552C41.0112 68.4411 38.3543 69.9483 35.3074 70.5963C31.1149 71.4839 27.9482 70.5597 26.7721 69.3186L26.374 68.7214C26.3496 68.6605 26.3008 68.6036 26.2846 68.5427C26.179 68.0877 26.309 67.5697 26.6705 66.9969V66.9969ZM32.1508 74.998C33.4305 74.998 34.7772 74.8598 36.1524 74.5673C39.4166 73.8747 42.2502 72.4345 44.1393 70.582L48.0047 82.5847C47.0988 83.8948 46.5626 85.4772 46.5626 87.1875V98.9566L30.5076 74.9106C31.0418 74.9634 31.5882 74.998 32.1508 74.998V74.998ZM38.4376 107.5C38.4376 103.805 39.0368 100.21 40.2169 96.7709L46.5626 106.275V108.897C45.6769 108.105 44.8482 107.244 44.1251 106.281L40.8751 108.719C45.0716 114.315 51.7544 117.656 58.7501 117.656H64.8438V125.781H56.7188C46.6377 125.781 38.4376 117.579 38.4376 107.5V107.5ZM60.7813 133.906H54.6876C52.4471 133.906 50.6251 132.084 50.6251 129.844V128.978C52.5649 129.529 54.6043 129.844 56.7188 129.844H70.9376C70.9376 132.084 69.1155 133.906 66.8751 133.906H60.7813ZM111.971 113.594C107.482 113.594 103.446 111.099 101.437 107.084L99.3751 102.958V95.3125H95.3126V133.906H83.1251V129.47C85.4833 128.629 87.1876 126.395 87.1876 123.75V119.688C87.1876 117.043 85.4833 114.808 83.1251 113.967V75.5362C94.1405 78.5019 103.377 86.2775 108.13 96.7323L108.436 97.4047L107.516 105.233L111.55 105.706L115.4 72.9688H123.75V101.817C123.75 108.31 118.465 113.594 111.971 113.594Z" fill="#252525"/>
</svg>
