<svg width="551" height="182" viewBox="0 0 551 182" fill="none" xmlns="http://www.w3.org/2000/svg">
<path d="M137.168 91.144L130.784 91C127.616 91 125.088 91.128 123.2 91.384C123.04 91.192 122.96 90.92 122.96 90.568L123.008 90.184C124.928 89.736 126.16 89.24 126.704 88.696C127.28 88.152 127.648 87.256 127.808 86.008C128.192 82.328 128.384 78.36 128.384 74.104V68.536C128.384 61.528 128.112 57.992 127.568 57.928C126.832 57.832 125.728 57.784 124.256 57.784C124.16 57.56 124.112 57.304 124.112 57.016C124.112 56.728 124.16 56.488 124.256 56.296L129.632 56.44C132.608 56.44 134.864 56.312 136.4 56.056C136.528 56.216 136.592 56.616 136.592 57.256C135.472 57.416 134.672 57.816 134.192 58.456C133.744 59.064 133.408 59.848 133.184 60.808C132.864 62.472 132.704 66.216 132.704 72.04V80.872C132.704 84.552 132.8 87.4 132.992 89.416C133.856 89.576 135.248 89.656 137.168 89.656C137.264 89.88 137.312 90.136 137.312 90.424L137.168 91.144ZM156.032 89.512C156.128 89.704 156.176 89.976 156.176 90.328C156.176 90.68 156.16 90.904 156.128 91C154.016 91.096 152.24 91.272 150.8 91.528C149.392 91.816 148.608 91.96 148.448 91.96C147.456 91.96 144.016 87.256 138.128 77.848C135.792 74.136 134.496 72.104 134.24 71.752L140.48 65.848C143.392 63.128 145.408 60.616 146.528 58.312C145.952 57.992 144.704 57.8 142.784 57.736C142.752 57.608 142.736 57.432 142.736 57.208L142.928 56.248C146.16 56.376 148.112 56.44 148.784 56.44C149.488 56.44 150.8 56.36 152.72 56.2C152.976 56.424 153.104 56.824 153.104 57.4C151.184 58.584 149.52 59.8 148.112 61.048L138.32 69.688C144.368 79.32 148.272 85.16 150.032 87.208C151.216 88.584 152.24 89.32 153.104 89.416C153.648 89.48 154.624 89.512 156.032 89.512ZM191.89 91.144L186.274 91C183.842 91 181.714 91.128 179.89 91.384C179.698 91.128 179.602 90.856 179.602 90.568L179.698 90.184C180.946 89.896 181.81 89.576 182.29 89.224C182.802 88.84 183.057 88.424 183.057 87.976C183.057 87.528 182.833 86.632 182.385 85.288L179.554 78.088C177.826 77.992 175.762 77.944 173.362 77.944L166.498 78.088L165.298 81.16C163.698 85.128 162.898 87.944 162.898 89.608C163.634 89.64 164.754 89.656 166.258 89.656C166.322 89.88 166.354 90.136 166.354 90.424C166.354 90.712 166.322 90.952 166.258 91.144L161.17 91C159.154 91 157.394 91.128 155.889 91.384C155.697 91.16 155.601 90.888 155.601 90.568L155.697 90.184C157.33 89.736 158.514 89.032 159.25 88.072C160.018 87.112 161.154 84.936 162.658 81.544L174.514 54.664H175.282L186.322 82.888C186.514 83.496 187.01 84.68 187.81 86.44C188.642 88.168 189.17 89.192 189.394 89.512C190.29 89.608 191.122 89.656 191.89 89.656C191.986 89.88 192.034 90.136 192.034 90.424C192.034 90.712 191.986 90.952 191.89 91.144ZM167.218 76.216L173.362 76.408C175.57 76.408 177.426 76.36 178.93 76.264L173.362 61.576L167.218 76.216ZM188.566 56.008L196.342 55.816C196.662 55.816 197.478 56.696 198.79 58.456C200.134 60.216 201.638 62.6 203.302 65.608C204.998 68.584 206.294 71.416 207.19 74.104C207.67 73.272 208.39 72.04 209.35 70.408C210.31 68.744 211.03 67.48 211.51 66.616C212.022 65.72 212.598 64.664 213.238 63.448C214.422 61.272 215.174 59.448 215.494 57.976C214.822 57.848 213.526 57.784 211.606 57.784C211.51 57.56 211.462 57.304 211.462 57.016C211.462 56.728 211.51 56.488 211.606 56.296C213.718 56.392 215.75 56.44 217.702 56.44C219.654 56.44 221.366 56.312 222.838 56.056C223.03 56.376 223.126 56.648 223.126 56.872L223.03 57.256C222.166 57.512 221.174 58.056 220.054 58.888C218.614 59.912 216.47 62.616 213.622 67C210.774 71.384 209.142 74.376 208.726 75.976C208.47 76.648 208.342 78.504 208.342 81.544C208.342 84.552 208.502 87.144 208.822 89.32C210.134 89.544 211.974 89.656 214.342 89.656C214.438 89.88 214.486 90.136 214.486 90.424L214.342 91.144L206.71 91C202.998 91 199.926 91.128 197.494 91.384C197.334 91.192 197.254 90.92 197.254 90.568L197.302 90.184C200.374 89.704 202.246 88.984 202.918 88.024C203.59 87.064 203.926 85.256 203.926 82.6C203.926 79.944 203.702 77.752 203.254 76.024C202.806 74.264 201.494 71.56 199.318 67.912C197.174 64.264 195.222 61.48 193.462 59.56C192.758 58.76 192.086 58.232 191.446 57.976C190.838 57.688 189.878 57.512 188.566 57.448C188.47 57.256 188.422 57 188.422 56.68C188.422 56.328 188.47 56.104 188.566 56.008ZM244.421 91.192L236.213 91H233.045C229.429 91 226.757 91.128 225.029 91.384C224.869 91.192 224.789 90.92 224.789 90.568L224.837 90.184C226.501 89.8 227.589 89.208 228.101 88.408C228.517 87.768 228.837 86.552 229.061 84.76C229.317 82.936 229.445 79.432 229.445 74.248V64.552C229.445 60.168 229.237 57.96 228.821 57.928C228.213 57.832 227.253 57.784 225.941 57.784C225.845 57.56 225.797 57.304 225.797 57.016C225.797 56.728 225.845 56.488 225.941 56.296L230.549 56.44C233.493 56.44 235.765 56.312 237.365 56.056C237.557 56.312 237.653 56.568 237.653 56.824L237.557 57.256C236.245 57.608 235.381 58.056 234.965 58.6C234.549 59.112 234.293 59.864 234.197 60.856C233.813 64.792 233.621 69.064 233.621 73.672V82.744C233.621 85.752 233.717 87.864 233.909 89.08C235.061 89.208 236.405 89.272 237.941 89.272C241.237 89.272 244.501 88.84 247.733 87.976C248.245 87.24 248.709 86.264 249.125 85.048C249.573 83.8 249.845 83.048 249.941 82.792C250.101 82.76 250.341 82.744 250.661 82.744C250.981 82.744 251.333 82.888 251.717 83.176C251.589 83.848 251.381 85.256 251.093 87.4C250.805 89.544 250.629 90.648 250.565 90.712C250.149 91.032 248.101 91.192 244.421 91.192ZM287.655 91.144L282.039 91C279.607 91 277.479 91.128 275.655 91.384C275.463 91.128 275.367 90.856 275.367 90.568L275.463 90.184C276.711 89.896 277.575 89.576 278.055 89.224C278.567 88.84 278.823 88.424 278.823 87.976C278.823 87.528 278.599 86.632 278.151 85.288L275.319 78.088C273.591 77.992 271.527 77.944 269.127 77.944L262.263 78.088L261.063 81.16C259.463 85.128 258.663 87.944 258.663 89.608C259.399 89.64 260.519 89.656 262.023 89.656C262.087 89.88 262.119 90.136 262.119 90.424C262.119 90.712 262.087 90.952 262.023 91.144L256.935 91C254.919 91 253.159 91.128 251.655 91.384C251.463 91.16 251.367 90.888 251.367 90.568L251.463 90.184C253.095 89.736 254.279 89.032 255.015 88.072C255.783 87.112 256.919 84.936 258.423 81.544L270.279 54.664H271.047L282.087 82.888C282.279 83.496 282.775 84.68 283.575 86.44C284.407 88.168 284.935 89.192 285.159 89.512C286.055 89.608 286.887 89.656 287.655 89.656C287.751 89.88 287.799 90.136 287.799 90.424C287.799 90.712 287.751 90.952 287.655 91.144ZM262.983 76.216L269.127 76.408C271.335 76.408 273.191 76.36 274.695 76.264L269.127 61.576L262.983 76.216ZM304.633 56.296L311.929 56.44H318.073C321.977 56.44 325.049 57.272 327.289 58.936C329.529 60.6 330.649 63.208 330.649 66.76C330.649 70.28 329.449 72.936 327.049 74.728C324.649 76.52 321.513 77.416 317.641 77.416C316.457 77.416 315.561 77.4 314.953 77.368C314.793 77.176 314.713 76.904 314.713 76.552L314.953 75.592C315.369 75.624 316.201 75.64 317.449 75.64C320.009 75.64 322.137 74.888 323.833 73.384C325.561 71.848 326.425 69.832 326.425 67.336C326.425 64.808 325.657 62.648 324.121 60.856C322.617 59.032 320.745 58.12 318.505 58.12C316.265 58.12 314.553 58.184 313.369 58.312C313.177 58.856 313.033 60.056 312.937 61.912C312.841 63.768 312.793 68.744 312.793 76.84V82.744C312.793 85.368 312.873 87.528 313.033 89.224C314.537 89.416 316.585 89.512 319.177 89.512C319.305 89.832 319.369 90.152 319.369 90.472C319.369 90.76 319.305 90.984 319.177 91.144L310.873 91C308.441 91 306.217 91.128 304.201 91.384C304.041 91.192 303.961 90.92 303.961 90.568L304.009 90.184C305.673 89.8 306.761 89.208 307.273 88.408C307.689 87.768 307.961 86.968 308.089 86.008C308.473 83.096 308.665 79.16 308.665 74.2C308.665 63.608 308.377 58.216 307.801 58.024C307.193 57.864 306.137 57.784 304.633 57.784C304.569 57.56 304.537 57.304 304.537 57.016C304.537 56.728 304.569 56.488 304.633 56.296ZM336.18 56.296L343.476 56.44H349.188C352.804 56.44 355.652 57.224 357.732 58.792C359.812 60.328 360.852 62.728 360.852 65.992C360.852 68.456 360.196 70.488 358.884 72.088C357.604 73.656 355.844 74.76 353.604 75.4C354.724 77.352 356.116 79.576 357.78 82.072C359.476 84.568 360.836 86.408 361.86 87.592C362.916 88.744 363.796 89.384 364.5 89.512C365.204 89.608 366.292 89.656 367.764 89.656C367.828 89.912 367.86 90.168 367.86 90.424C367.86 90.648 367.828 90.888 367.764 91.144C365.428 91.272 363.604 91.432 362.292 91.624C361.012 91.848 360.244 91.96 359.988 91.96C359.764 91.96 359.284 91.56 358.548 90.76C357.844 89.928 357.012 88.792 356.052 87.352C355.092 85.88 354.212 84.52 353.412 83.272C352.644 82.024 351.764 80.6 350.772 79C349.812 77.368 349.22 76.376 348.996 76.024C346.948 76.024 345.364 75.96 344.244 75.832V82.984C344.244 84.904 344.356 87.016 344.58 89.32C345.572 89.544 346.98 89.656 348.804 89.656C348.9 89.912 348.948 90.2 348.948 90.52C348.948 90.808 348.9 91.016 348.804 91.144L342.42 91C339.988 91 337.764 91.128 335.748 91.384C335.588 91.192 335.508 90.92 335.508 90.568L335.556 90.184C337.22 89.8 338.308 89.208 338.82 88.408C339.236 87.768 339.508 86.968 339.636 86.008C340.02 83.096 340.212 79.16 340.212 74.2C340.212 63.608 339.924 58.216 339.348 58.024C338.74 57.864 337.684 57.784 336.18 57.784C336.052 57.56 335.988 57.352 335.988 57.16C335.988 56.968 336.052 56.68 336.18 56.296ZM356.676 66.52C356.676 64.152 356.004 62.136 354.66 60.472C353.348 58.808 351.588 57.976 349.38 57.976C347.172 57.976 345.636 58.04 344.772 58.168C344.42 59.576 344.244 64.888 344.244 74.104C345.396 74.2 346.996 74.248 349.044 74.248C351.092 74.248 352.868 73.544 354.372 72.136C355.908 70.728 356.676 68.856 356.676 66.52ZM402.626 73.864C402.626 76.104 402.306 78.168 401.666 80.056C401.058 81.912 400.274 83.448 399.314 84.664C398.386 85.848 397.298 86.92 396.05 87.88C394.802 88.808 393.602 89.528 392.45 90.04C391.33 90.52 390.194 90.92 389.042 91.24C387.346 91.72 386.066 91.96 385.202 91.96C380.53 91.96 376.546 90.232 373.25 86.776C369.954 83.288 368.306 78.984 368.306 73.864C368.306 71.624 368.61 69.576 369.218 67.72C369.858 65.832 370.642 64.28 371.57 63.064C372.53 61.848 373.634 60.776 374.882 59.848C376.13 58.888 377.33 58.152 378.482 57.64C379.634 57.128 380.77 56.712 381.89 56.392C383.554 55.912 384.85 55.672 385.778 55.672C390.418 55.672 394.386 57.448 397.682 61C400.978 64.52 402.626 68.808 402.626 73.864ZM386.69 89.464C390.306 89.464 393.042 88.248 394.898 85.816C396.786 83.352 397.73 80.2 397.73 76.36C397.73 73.384 397.186 70.52 396.098 67.768C395.042 65.016 393.474 62.728 391.394 60.904C389.314 59.048 386.978 58.12 384.386 58.12C380.77 58.12 377.986 59.384 376.034 61.912C374.114 64.408 373.154 67.512 373.154 71.224C373.154 74.2 373.698 77.08 374.786 79.864C375.906 82.616 377.522 84.904 379.634 86.728C381.746 88.552 384.098 89.464 386.69 89.464ZM408.04 56.296L415.336 56.44H421.48C425.384 56.44 428.456 57.272 430.696 58.936C432.936 60.6 434.056 63.208 434.056 66.76C434.056 70.28 432.856 72.936 430.456 74.728C428.056 76.52 424.92 77.416 421.048 77.416C419.864 77.416 418.968 77.4 418.359 77.368C418.2 77.176 418.12 76.904 418.12 76.552L418.359 75.592C418.776 75.624 419.608 75.64 420.856 75.64C423.416 75.64 425.544 74.888 427.24 73.384C428.968 71.848 429.832 69.832 429.832 67.336C429.832 64.808 429.064 62.648 427.528 60.856C426.024 59.032 424.152 58.12 421.912 58.12C419.672 58.12 417.96 58.184 416.776 58.312C416.584 58.856 416.44 60.056 416.344 61.912C416.248 63.768 416.2 68.744 416.2 76.84V82.744C416.2 85.368 416.28 87.528 416.44 89.224C417.944 89.416 419.992 89.512 422.584 89.512C422.712 89.832 422.776 90.152 422.776 90.472C422.776 90.76 422.712 90.984 422.584 91.144L414.28 91C411.848 91 409.624 91.128 407.608 91.384C407.448 91.192 407.368 90.92 407.368 90.568L407.416 90.184C409.08 89.8 410.168 89.208 410.68 88.408C411.096 87.768 411.368 86.968 411.496 86.008C411.88 83.096 412.072 79.16 412.072 74.2C412.072 63.608 411.784 58.216 411.208 58.024C410.6 57.864 409.544 57.784 408.04 57.784C407.976 57.56 407.944 57.304 407.944 57.016C407.944 56.728 407.976 56.488 408.04 56.296ZM457.922 91.192L449.714 91H447.17C443.458 91 440.786 91.128 439.154 91.384C438.994 91.192 438.914 90.92 438.914 90.568L438.962 90.184C440.626 89.8 441.714 89.208 442.226 88.408C442.642 87.768 442.914 86.968 443.042 86.008C443.426 83.096 443.618 79.128 443.618 74.104C443.618 63.576 443.33 58.216 442.754 58.024C442.146 57.864 441.09 57.784 439.586 57.784C439.522 57.56 439.49 57.304 439.49 57.016C439.49 56.728 439.522 56.488 439.586 56.296L446.882 56.44H452.402L463.73 56.104C464.274 56.104 464.546 56.28 464.546 56.632C464.546 56.664 464.498 57.048 464.402 57.784C464.082 59.768 463.858 61.992 463.73 64.456C463.346 64.648 462.994 64.744 462.674 64.744C462.386 64.744 462.114 64.68 461.858 64.552C461.474 61.64 461.186 59.832 460.994 59.128C458.082 58.456 455.458 58.12 453.122 58.12C450.818 58.12 449.218 58.184 448.322 58.312C447.938 60.36 447.746 64.92 447.746 71.992C448.258 72.12 449.618 72.184 451.826 72.184C454.034 72.184 455.682 72.12 456.77 71.992C457.858 71.864 458.642 71.608 459.122 71.224C459.634 70.84 460.018 70.056 460.274 68.872C460.946 68.872 461.442 68.968 461.762 69.16C461.442 70.984 461.282 72.328 461.282 73.192L461.378 77.368C461.154 77.528 460.866 77.608 460.514 77.608L459.842 77.512L459.314 74.344C457.586 74.056 455.57 73.912 453.266 73.912C450.962 73.912 449.122 73.992 447.746 74.152V82.744C447.746 85.752 447.842 87.864 448.034 89.08C449.026 89.208 450.162 89.272 451.442 89.272C454.738 89.272 458.002 88.84 461.234 87.976C461.714 87.208 462.178 86.216 462.626 85C463.074 83.752 463.33 83.016 463.394 82.792C463.586 82.76 463.842 82.744 464.162 82.744C464.482 82.744 464.834 82.888 465.218 83.176C464.738 85.448 464.386 87.8 464.162 90.232C464.13 90.616 463.922 90.824 463.538 90.856C462.13 91.08 460.258 91.192 457.922 91.192ZM470.758 56.296L478.054 56.44H483.766C487.382 56.44 490.23 57.224 492.31 58.792C494.39 60.328 495.43 62.728 495.43 65.992C495.43 68.456 494.774 70.488 493.462 72.088C492.182 73.656 490.422 74.76 488.182 75.4C489.302 77.352 490.694 79.576 492.358 82.072C494.054 84.568 495.414 86.408 496.438 87.592C497.494 88.744 498.374 89.384 499.078 89.512C499.782 89.608 500.87 89.656 502.342 89.656C502.406 89.912 502.438 90.168 502.438 90.424C502.438 90.648 502.406 90.888 502.342 91.144C500.006 91.272 498.182 91.432 496.87 91.624C495.59 91.848 494.822 91.96 494.566 91.96C494.342 91.96 493.862 91.56 493.126 90.76C492.422 89.928 491.59 88.792 490.63 87.352C489.67 85.88 488.79 84.52 487.99 83.272C487.222 82.024 486.342 80.6 485.35 79C484.39 77.368 483.798 76.376 483.574 76.024C481.526 76.024 479.942 75.96 478.822 75.832V82.984C478.822 84.904 478.934 87.016 479.158 89.32C480.15 89.544 481.558 89.656 483.382 89.656C483.478 89.912 483.526 90.2 483.526 90.52C483.526 90.808 483.478 91.016 483.382 91.144L476.998 91C474.566 91 472.342 91.128 470.326 91.384C470.166 91.192 470.086 90.92 470.086 90.568L470.134 90.184C471.798 89.8 472.886 89.208 473.398 88.408C473.814 87.768 474.086 86.968 474.214 86.008C474.598 83.096 474.79 79.16 474.79 74.2C474.79 63.608 474.502 58.216 473.926 58.024C473.318 57.864 472.262 57.784 470.758 57.784C470.63 57.56 470.566 57.352 470.566 57.16C470.566 56.968 470.63 56.68 470.758 56.296ZM491.254 66.52C491.254 64.152 490.582 62.136 489.238 60.472C487.926 58.808 486.166 57.976 483.958 57.976C481.75 57.976 480.214 58.04 479.35 58.168C478.998 59.576 478.822 64.888 478.822 74.104C479.974 74.2 481.574 74.248 483.622 74.248C485.67 74.248 487.446 73.544 488.95 72.136C490.486 70.728 491.254 68.856 491.254 66.52ZM524.473 91.144L516.601 91C513.145 91 510.281 91.128 508.009 91.384C507.849 91.192 507.769 90.92 507.769 90.568L507.817 90.184C510.025 89.832 511.481 89.384 512.185 88.84C512.889 88.264 513.353 87.336 513.577 86.056C514.025 83.688 514.249 79.72 514.249 74.152C514.249 68.584 514.185 64.696 514.057 62.488C513.929 60.28 513.769 58.904 513.577 58.36C512.777 58.2 511.801 58.12 510.649 58.12C507.961 58.12 505.865 58.472 504.361 59.176L502.249 64.456C501.513 64.456 500.969 64.328 500.617 64.072L501.385 56.632C501.385 56.28 501.657 56.104 502.201 56.104L510.649 56.44H522.409L531.625 56.104C532.201 56.104 532.489 56.28 532.489 56.632C531.977 59.448 531.721 62.024 531.721 64.36C531.465 64.488 531.145 64.552 530.761 64.552C530.377 64.552 530.073 64.488 529.849 64.36C529.273 61.192 528.953 59.464 528.889 59.176C527.289 58.472 525.097 58.12 522.313 58.12C521.065 58.12 520.057 58.2 519.289 58.36C519.193 58.648 519.065 59.976 518.905 62.344C518.777 64.712 518.713 67.752 518.713 71.464V80.056C518.713 83.608 518.969 86.696 519.481 89.32C520.953 89.544 522.617 89.656 524.473 89.656C524.569 89.912 524.617 90.2 524.617 90.52C524.617 90.808 524.569 91.016 524.473 91.144ZM535.399 56.296L541.639 56.44L547.783 56.296C547.847 56.488 547.879 56.728 547.879 57.016L547.783 57.784C546.375 57.784 545.303 57.832 544.567 57.928C544.023 57.992 543.751 61.592 543.751 68.728V76.552C543.751 79.592 543.815 82.504 543.943 85.288C544.103 88.072 544.295 89.48 544.519 89.512C545.351 89.608 546.759 89.656 548.743 89.656C548.807 89.88 548.839 90.136 548.839 90.424C548.839 90.712 548.807 90.952 548.743 91.144L542.647 91C539.287 91 536.535 91.128 534.391 91.384C534.231 91.224 534.151 90.952 534.151 90.568L534.199 90.184C536.279 89.736 537.559 89.208 538.039 88.6C538.327 88.216 538.519 87.88 538.615 87.592C538.711 87.304 538.791 86.856 538.855 86.248C539.239 83.752 539.431 79.704 539.431 74.104V68.728C539.431 61.592 539.159 57.992 538.615 57.928C537.879 57.832 536.807 57.784 535.399 57.784C535.335 57.56 535.303 57.304 535.303 57.016C535.303 56.728 535.335 56.488 535.399 56.296Z" fill="black"/>
<g clip-path="url(#clip0)">
<path d="M98.9359 83.9047C97.0338 81.1094 93.2033 80.3695 90.3994 82.2539L77.6377 90.7945L77.6006 64.2106L82.0342 68.3639C82.977 69.2469 84.2062 69.7328 85.4969 69.7328C85.4992 69.7328 85.502 69.7328 85.5045 69.7328C86.8978 69.7309 88.2432 69.1469 89.1955 68.1303C90.1207 67.1426 90.6061 65.8539 90.5619 64.5012C90.5178 63.1484 89.9494 61.894 88.9617 60.9688L80.5564 53.0949C79.9811 52.5559 79.0777 52.5854 78.5389 53.1607C78 53.7361 78.0295 54.6393 78.6047 55.1783L87.01 63.0522C87.4412 63.4561 87.6893 64.0037 87.7086 64.5941C87.7277 65.1846 87.516 65.7473 87.1119 66.1783C86.69 66.6287 86.1178 66.8772 85.5002 66.8779C85.499 66.8779 85.498 66.8779 85.4969 66.8779C84.9338 66.8779 84.3973 66.6658 83.9857 66.2803C83.9855 66.2801 83.9855 66.2801 83.9855 66.2801L50.6102 35.0147C50.0602 34.4996 49.2043 34.5004 48.6557 35.0174L15.367 66.3764C14.9371 66.7815 14.375 66.9936 13.7844 66.9772C13.1937 66.9596 12.6455 66.7129 12.2404 66.2826C11.8354 65.8527 11.6219 65.2906 11.6396 64.7002C11.6572 64.1096 11.9039 63.5613 12.3338 63.1563L48.1105 29.4535C48.9586 28.6545 50.2891 28.6525 51.1393 29.4494L72.0703 49.0572C72.6455 49.5961 73.5488 49.5668 74.0879 48.9914C74.6268 48.416 74.5973 47.5129 74.0221 46.9738L53.0912 27.366C51.1434 25.541 48.0959 25.5451 46.1531 27.3756L34.7002 38.1647L34.6971 36.2402C34.6963 35.6336 34.4592 35.0637 34.0297 34.6356C33.601 34.208 33.0318 33.9727 32.4264 33.9727C32.4252 33.9727 32.4242 33.9727 32.423 33.9727L24.2303 33.9842C23.6236 33.985 23.0539 34.2221 22.6256 34.6516C22.1975 35.0811 21.9619 35.6516 21.9629 36.2584L21.9855 50.1426L10.3764 61.0787C9.39121 62.0066 8.82656 63.2627 8.78613 64.6154C8.7457 65.9682 9.23457 67.2557 10.1625 68.2404C11.0902 69.2256 12.3463 69.7904 13.6992 69.8309C13.751 69.8324 13.8027 69.8332 13.8545 69.8332C15.1504 69.8332 16.3775 69.3469 17.3246 68.4543L21.7482 64.2871L21.7658 76.844C20.3346 76.6356 18.8865 76.5262 17.4318 76.5262H14.9895V75.6703C14.9895 72.7971 12.6518 70.4594 9.77852 70.4594H5.21094C2.3377 70.4592 0 72.7967 0 75.6701V98.0369C0 98.8252 0.639063 99.4643 1.42734 99.4643C2.21562 99.4643 2.85469 98.8252 2.85469 98.0369V75.6701C2.85469 74.3709 3.91172 73.3139 5.21094 73.3139H9.77832C11.0775 73.3139 12.1346 74.3709 12.1346 75.6701V77.9533V107.21V109.471C12.1346 110.77 11.0775 111.827 9.77832 111.827H5.21094C3.91172 111.827 2.85469 110.77 2.85469 109.471V106.973C2.85469 106.185 2.21562 105.546 1.42734 105.546C0.639063 105.546 0 106.185 0 106.973V109.471C0 112.344 2.3377 114.682 5.21094 114.682H9.77832C12.6516 114.682 14.9893 112.345 14.9893 109.471V109.277L35.8924 117.193C35.9311 117.207 35.9703 117.22 36.0102 117.231C36.9189 117.488 37.8273 117.617 38.7242 117.617C39.2094 117.617 39.6912 117.579 40.1682 117.504L70.8871 113.076C70.8943 113.075 70.9014 113.073 70.9086 113.072C73.5203 112.655 75.9842 111.551 78.0336 109.88C78.0514 109.865 78.0689 109.85 78.0859 109.835L97.9318 91.9856C100.243 89.9338 100.674 86.4598 98.9359 83.9047ZM31.8432 36.8283L31.8498 40.8498L24.8357 47.4572L24.8184 36.8379L31.8432 36.8283ZM49.6369 38.0147L74.742 61.5326L74.7855 92.7031L70.7443 95.4078L66.4648 95.1678L66.3518 94.0311C65.9535 90.0275 62.998 86.807 59.09 86.0385L59.0643 67.4945C59.0623 66.0715 57.9037 64.915 56.4809 64.915C56.4797 64.915 56.4787 64.915 56.4773 64.915L42.873 64.9342C42.183 64.9352 41.5346 65.2047 41.0475 65.6934C40.5602 66.1818 40.2924 66.8311 40.2934 67.5209L40.316 83.6891C37.6213 83.0731 35.0482 82.0557 32.6426 80.6484C32.3424 80.4729 32.0393 80.3033 31.7336 80.1385C31.6145 80.0742 31.4934 80.0139 31.3732 79.9512C31.1873 79.8541 31.0018 79.7565 30.8139 79.6633C30.6643 79.5891 30.5129 79.5188 30.3621 79.4471C30.2021 79.3711 30.0424 79.2943 29.8813 79.2211C29.7172 79.1467 29.5518 79.0758 29.3865 79.0043C29.2355 78.9391 29.0846 78.8734 28.9326 78.8107C28.7627 78.7406 28.5918 78.6732 28.4207 78.6063C28.2689 78.5469 28.117 78.4879 27.9645 78.4309C27.7951 78.3676 27.625 78.3065 27.4545 78.2465C27.2945 78.19 27.1344 78.135 26.9734 78.0813C26.8102 78.0268 26.6465 77.9734 26.482 77.9217C26.3068 77.8664 26.1309 77.8137 25.9547 77.7615C25.8033 77.717 25.6521 77.6725 25.5 77.6303C25.3014 77.575 25.1018 77.5232 24.902 77.4721C24.8084 77.4481 24.7154 77.4209 24.6213 77.3977L24.5992 61.6012L49.6369 38.0147ZM56.235 85.6813L44.2965 84.3068L43.1717 84.1774L43.1486 67.7885L56.21 67.7701L56.235 85.6813ZM96.0299 89.8572L76.2035 107.689C74.5514 109.029 72.5695 109.915 70.4689 110.252L39.7633 114.678C39.7568 114.679 39.7506 114.68 39.7441 114.681L39.7229 114.684C38.7926 114.831 37.8238 114.769 36.8432 114.5L14.9895 106.224V79.3807H17.4318C19.5109 79.3807 21.576 79.6207 23.5869 80.0869C23.6617 80.1043 23.7363 80.1221 23.8109 80.14C24.058 80.1996 24.3045 80.2609 24.5498 80.3274C24.5713 80.3332 24.5926 80.3395 24.6141 80.3453C24.86 80.4125 25.1049 80.4834 25.349 80.5574C25.3928 80.5707 25.4367 80.5838 25.4803 80.5973C25.74 80.6775 25.9986 80.7613 26.2559 80.8492C26.2824 80.8584 26.3088 80.8678 26.3354 80.877C26.8711 81.0619 27.4016 81.2637 27.9254 81.482C27.9539 81.4939 27.9824 81.5059 28.0109 81.518C28.2721 81.6277 28.5316 81.7412 28.7895 81.8592C28.7963 81.8623 28.8033 81.8656 28.8102 81.869C29.0594 81.9834 29.3068 82.1022 29.5527 82.2242C29.5816 82.2385 29.6107 82.2525 29.6396 82.267C29.8799 82.3871 30.1182 82.5115 30.3551 82.6389C30.3998 82.6629 30.4443 82.6875 30.4891 82.7117C30.7281 82.842 30.9658 82.9748 31.2012 83.1125C34.5979 85.0994 38.2955 86.3863 42.1916 86.9377C42.2039 86.9395 42.216 86.941 42.2283 86.9424L58.2207 88.7836C58.3092 88.7963 58.3971 88.8109 58.4844 88.8273C60.8387 89.2695 62.6969 91.0092 63.3186 93.2746C63.4107 93.6102 63.4756 93.9574 63.5111 94.3135L63.5746 94.9522L33.602 92.3262C32.8172 92.2576 32.1242 92.8383 32.0555 93.6234C31.9865 94.4088 32.5676 95.1012 33.3527 95.1699L65.0406 97.9463C65.0482 97.9469 65.0557 97.9467 65.0631 97.9473C65.0705 97.9479 65.0777 97.949 65.0854 97.9496L71.0613 98.285C71.0881 98.2865 71.1147 98.2871 71.1412 98.2871C71.1695 98.2871 71.1975 98.2826 71.2256 98.2809C71.2574 98.2789 71.2893 98.2777 71.3209 98.2738C71.3635 98.2684 71.4051 98.2592 71.4469 98.25C71.4768 98.2434 71.5068 98.2385 71.5361 98.2299C71.5818 98.2168 71.6258 98.199 71.6701 98.1813C71.6939 98.1717 71.7186 98.1645 71.742 98.1535C71.8086 98.1227 71.8734 98.0871 71.9352 98.0457L77.0078 94.651C77.008 94.6508 77.0082 94.6506 77.0084 94.6504L91.9893 84.6246C93.4965 83.6115 95.5539 84.009 96.5756 85.5106C97.5096 86.8828 97.2777 88.749 96.0299 89.8572Z" fill="black"/>
</g>
<defs>
<clipPath id="clip0">
<rect width="182" height="182" fill="white"/>
</clipPath>
</defs>
</svg>
